<svg xmlns="http://www.w3.org/2000/svg" width="256" height="256" viewBox="0 0 100 100"><rect width="100" height="100" rx="20" fill="#689ce7"></rect><path fill="#fff" d="M25.12 53.09L25.12 53.09Q15.47 50.31 11.07 46.27Q6.68 42.23 6.68 36.29L6.68 36.29Q6.68 29.57 12.05 25.18Q17.42 20.78 26.02 20.78L26.02 20.78Q31.88 20.78 36.46 23.05Q41.05 25.31 43.57 29.30Q46.09 33.28 46.09 38.01L46.09 38.01L38.55 38.01Q38.55 32.85 35.27 29.90Q31.99 26.95 26.02 26.95L26.02 26.95Q20.47 26.95 17.36 29.39Q14.26 31.84 14.26 36.17L14.26 36.17Q14.26 39.65 17.21 42.05Q20.16 44.45 27.25 46.45Q34.34 48.44 38.34 50.84Q42.34 53.24 44.28 56.45Q46.21 59.65 46.21 63.98L46.21 63.98Q46.21 70.90 40.82 75.06Q35.43 79.22 26.41 79.22L26.41 79.22Q20.55 79.22 15.47 76.97Q10.39 74.73 7.64 70.82Q4.88 66.91 4.88 61.95L4.88 61.95L12.42 61.95Q12.42 67.11 16.23 70.10Q20.04 73.09 26.41 73.09L26.41 73.09Q32.34 73.09 35.51 70.66Q38.67 68.24 38.67 64.06Q38.67 59.88 35.74 57.60Q32.81 55.31 25.12 53.09ZM95.12 21.56L95.12 27.73L76.84 27.73L76.84 78.44L69.38 78.44L69.38 27.73L51.13 27.73L51.13 21.56L95.12 21.56Z"></path></svg>